<svg xmlns="http://www.w3.org/2000/svg" xmlns:svg="http://www.w3.org/2000/svg" xmlns:xlink="http://www.w3.org/1999/xlink" id="svg2" width="16" height="16" version="1.1"><defs id="defs4"><linearGradient id="linearGradient3773"><stop style="stop-color:#ef2929;stop-opacity:1" id="stop3775" offset="0"/><stop id="stop3781" offset=".742" style="stop-color:#d71b1b;stop-opacity:1"/><stop style="stop-color:#bf0e0e;stop-opacity:1" id="stop3777" offset="1"/></linearGradient><radialGradient id="radialGradient3779" cx="8" cy="8" r="8" fx="8" fy="8" gradientUnits="userSpaceOnUse" xlink:href="#linearGradient3773"/></defs><metadata id="metadata7"/><g id="layer1" transform="translate(0,-1036.3622)"><path id="path3013" d="m 7.9944846,1044.3599 0,0 6.3639614,-4.9497 -1.414214,-1.4142 z" style="fill:#ef2929;fill-opacity:1;stroke:none"/><path style="fill:#ef2929;fill-opacity:1;stroke:none" id="path3015" d="m 8.0055154,1044.3489 0,0 -6.363961,4.9497 1.4142136,1.4142 z"/><path style="fill:#ef2929;fill-opacity:1;stroke:none" id="path3017" d="m 7.9944846,1044.3489 0,0 4.9497474,6.3639 1.414214,-1.4142 z"/><path id="path3019" d="m 8.0055154,1044.3599 0,0 -4.9497474,-6.3639 -1.4142136,1.4142 z" style="fill:#ef2929;fill-opacity:1;stroke:none"/><path style="fill:#ef2929;fill-opacity:1;stroke:none" id="path3009" d="m 7.9922,1044.3544 0,0 8,1 0,-2 z"/><path id="path3011" d="m 8.0078,1044.3544 0,0 -8,-1 0,2 z" style="fill:#ef2929;fill-opacity:1;stroke:none"/><path id="path3007" d="m 8,1044.3466 0,0 -1,8 2,0 z" style="fill:#ef2929;fill-opacity:1;stroke:none"/><path style="fill:#ef2929;fill-opacity:1;stroke:none" id="path2989" d="M 8,8 8,8 9,0 7,0 z" transform="translate(0,1036.3622)"/><path style="fill:url(#radialGradient3779);fill-opacity:1;stroke:none" id="path2987" d="m 16,8 c 0,4.418278 -3.581722,8 -8,8 C 3.581722,16 0,12.418278 0,8 0,3.581722 3.581722,0 8,0 c 4.418278,0 8,3.581722 8,8 z" transform="matrix(0.36272321,0,0,0.36272321,5.0982143,1041.4604)"/></g></svg>